HIERARCHY
ROOT Hips
{
	OFFSET 0.00000 0.00000 0.00000
	CHANNELS 6 Xposition Yposition Zposition Zrotation Yrotation Xrotation 
	JOINT LHipJoint
	{
		OFFSET 0 0 0
		CHANNELS 3 Zrotation Yrotation Xrotation
		JOINT LeftUpLeg
		{
			OFFSET 1.53139 -1.83434 0.76626
			CHANNELS 3 Zrotation Yrotation Xrotation
			JOINT LeftLeg
			{
				OFFSET 2.56112 -7.03663 0.00000
				CHANNELS 3 Zrotation Yrotation Xrotation
				JOINT LeftFoot
				{
					OFFSET 2.59983 -7.14299 0.00000
					CHANNELS 3 Zrotation Yrotation Xrotation
					JOINT LeftToeBase
					{
						OFFSET 0.13742 -0.37757 2.00054
						CHANNELS 3 Zrotation Yrotation Xrotation
						End Site
						{
							OFFSET 0.00000 -0.00000 1.02897
						}
					}
				}
			}
		}
	}
	JOINT RHipJoint
	{
		OFFSET 0 0 0
		CHANNELS 3 Zrotation Yrotation Xrotation
		JOINT RightUpLeg
		{
			OFFSET -1.40122 -1.83435 0.76627
			CHANNELS 3 Zrotation Yrotation Xrotation
			JOINT RightLeg
			{
				OFFSET -2.54052 -6.98003 0.00000
				CHANNELS 3 Zrotation Yrotation Xrotation
				JOINT RightFoot
				{
					OFFSET -2.63179 -7.23079 0.00000
					CHANNELS 3 Zrotation Yrotation Xrotation
					JOINT RightToeBase
					{
						OFFSET -0.24131 -0.66299 2.03908
						CHANNELS 3 Zrotation Yrotation Xrotation
						End Site
						{
							OFFSET -0.00000 -0.00000 1.07391
						}
					}
				}
			}
		}
	}
	JOINT LowerBack
	{
		OFFSET 0 0 0
		CHANNELS 3 Zrotation Yrotation Xrotation
		JOINT Spine
		{
			OFFSET 0.01174 2.10302 -0.29778
			CHANNELS 3 Zrotation Yrotation Xrotation
			JOINT Spine1
			{
				OFFSET 0.00772 2.13227 -0.01247
				CHANNELS 3 Zrotation Yrotation Xrotation
				JOINT Neck
				{
					OFFSET 0 0 0
					CHANNELS 3 Zrotation Yrotation Xrotation
					JOINT Neck1
					{
						OFFSET -0.09219 1.60848 0.31481
						CHANNELS 3 Zrotation Yrotation Xrotation
						JOINT Head
						{
							OFFSET 0.13974 1.65456 -0.31134
							CHANNELS 3 Zrotation Yrotation Xrotation
							End Site
							{
								OFFSET 0.04742 1.69515 -0.14578
							}
						}
					}
				}
				JOINT LeftShoulder
				{
					OFFSET 0 0 0
					CHANNELS 3 Zrotation Yrotation Xrotation
					JOINT LeftArm
					{
						OFFSET 3.24909 1.02882 -0.23993
						CHANNELS 3 Zrotation Yrotation Xrotation
						JOINT LeftForeArm
						{
							OFFSET 5.32955 -0.00000 -0.00000
							CHANNELS 3 Zrotation Yrotation Xrotation
							JOINT LeftHand
							{
								OFFSET 3.69232 -0.00000 -0.00000
								CHANNELS 3 Zrotation Yrotation Xrotation
								JOINT LeftFingerBase
								{
									OFFSET 0 0 0
									CHANNELS 3 Zrotation Yrotation Xrotation
									JOINT LeftHandIndex1
									{
										OFFSET 0.53660 -0.00000 -0.00000
										CHANNELS 3 Zrotation Yrotation Xrotation
										End Site
										{
											OFFSET 0.43262 -0.00000 -0.00000
										}
									}
								}
								JOINT LThumb
								{
									OFFSET 0 0 0
									CHANNELS 3 Zrotation Yrotation Xrotation
									End Site
									{
										OFFSET 0.43922 -0.00000 0.43922
									}
								}
							}
						}
					}
				}
				JOINT RightShoulder
				{
					OFFSET 0 0 0
					CHANNELS 3 Zrotation Yrotation Xrotation
					JOINT RightArm
					{
						OFFSET -3.21387 0.93002 -0.34594
						CHANNELS 3 Zrotation Yrotation Xrotation
						JOINT RightForeArm
						{
							OFFSET -5.23431 -0.00000 0.00000
							CHANNELS 3 Zrotation Yrotation Xrotation
							JOINT RightHand
							{
								OFFSET -3.55301 -0.00000 -0.00000
								CHANNELS 3 Zrotation Yrotation Xrotation
								JOINT RightFingerBase
								{
									OFFSET 0 0 0
									CHANNELS 3 Zrotation Yrotation Xrotation
									JOINT RightHandIndex1
									{
										OFFSET -0.77252 -0.00000 -0.00000
										CHANNELS 3 Zrotation Yrotation Xrotation
										End Site
										{
											OFFSET -0.62283 -0.00000 -0.00000
										}
									}
								}
								JOINT RThumb
								{
									OFFSET 0 0 0
									CHANNELS 3 Zrotation Yrotation Xrotation
									End Site
									{
										OFFSET -0.63234 -0.00000 0.63234
									}
								}
							}
						}
					}
				}
			}
		}
	}
}
MOTION
Frames: 15
Frame Time: .0083333
11.8087 17.815 -19.6142 0 0 0 0 0 0 -21 0 0 0 0 0 0 0 0 0 0 0 0 0 0 21 0 0 0 0 0 0 0 0 0 0 0 0 0 0 0 0 0 0 0 0 0 0 -16 0 0 21 0 0 11 0 0 0 -8 0 0 0 0 0 0 0 0 0 0 0 0 0 0 0 0 0 0 0 0 8 0 0 0 0 0 0 0 0 0 0 0 0 0 0 0 0 0
11.8087 17.8150 -19.6142 7.2980 4.0781 0.6961 0.0000 0.0000 0.0000 -30.6282 3.0358 11.5334 0.0000 -0.0000 -0.0000 -0.1552 -8.8084 -2.5314 0.0905 -1.9406 -5.3415 0.0000 0.0000 0.0000 13.9403 4.0476 -29.9902 -2.7221 -10.2310 29.7281 -0.0448 -3.1095 -6.3146 -0.1546 -2.5336 6.9827 -6.9733 -0.6692 11.1675 -0.9595 -1.7754 1.5079 3.1822 -0.7656 -4.5017 -12.6967 -7.0558 -20.8592 10.0202 -8.5622 23.7247 4.4517 -3.7405 12.3244 -0.0000 0.0000 0.0000 -80.1021 -5.6452 25.2394 21.9079 -32.8727 -6.5358 -0.0000 -0.0000 2.7149 21.8020 25.4373 9.7491 -7.1250 0.0000 -0.0000 -8.7249 56.8915 -2.5559 -0.0000 0.0000 0.0000 90.5043 -5.0052 11.6159 -15.6266 25.0117 -3.4866 0.0000 0.0000 7.0258 -15.7615 8.3832 -2.3564 7.1250 -0.0000 -0.0000 8.0233 -21.3083 4.6037
11.8040 17.8143 -19.4892 7.4137 4.0396 0.7481 0.0000 0.0000 0.0000 -30.7518 3.2129 11.8934 0.0000 -0.0000 -0.0000 -0.1315 -8.4833 -2.8202 0.0965 -2.0037 -5.5160 0.0000 0.0000 0.0000 13.8538 4.4439 -29.8227 -2.4235 -9.6974 28.0022 -0.0544 -3.3691 -6.8987 -0.0909 -1.9444 5.3520 -7.0902 -0.6579 11.0891 -0.9807 -1.7707 1.4707 3.2233 -0.7608 -4.4949 -12.8164 -7.0494 -20.7497 10.1333 -8.5577 23.6996 4.5178 -3.7388 12.3047 0.0000 -0.0000 0.0000 -80.0490 -5.7018 25.3584 21.9635 -32.9358 -6.5660 -0.0000 -0.0000 2.6634 21.3077 24.6463 9.2383 -7.1250 0.0000 -0.0000 -8.8976 55.9777 -2.4097 0.0000 -0.0000 0.0000 90.5331 -5.1676 11.5231 -15.5801 24.9480 -3.4669 0.0000 0.0000 7.0285 -15.6223 8.3537 -2.3264 7.1250 -0.0000 -0.0000 8.1245 -21.3452 4.6561
11.8046 17.8129 -19.3656 7.4902 3.9947 0.8001 0.0000 0.0000 0.0000 -30.8411 3.3985 12.2540 0.0000 0.0000 0.0000 -0.1165 -8.3089 -3.0496 0.1100 -2.1389 -5.8896 0.0000 0.0000 0.0000 13.7647 4.7816 -29.7489 -2.1825 -9.2363 26.5374 -0.0773 -3.3649 -7.5707 -0.0596 -1.5755 4.3339 -7.1149 -0.6893 11.0445 -0.9747 -1.8128 1.4403 3.2486 -0.7804 -4.4968 -12.9171 -7.0548 -20.6678 10.1530 -8.5451 23.6695 4.5450 -3.7425 12.2814 -0.0000 -0.0000 0.0000 -80.0426 -5.7639 25.4358 21.9354 -32.9040 -6.5507 -0.0000 -0.0000 2.5142 21.0535 24.2607 8.9878 -7.1250 0.0000 -0.0000 -8.9982 55.5311 -2.3395 -0.0000 -0.0000 0.0000 90.5185 -5.2618 11.5435 -15.5325 24.8827 -3.4469 0.0000 0.0000 7.1690 -15.6483 7.9101 -2.2076 7.1250 -0.0000 -0.0000 8.1187 -21.7992 4.5682
11.8064 17.8085 -19.2451 7.5225 3.9008 1.0202 0.0000 0.0000 0.0000 -30.8849 3.5240 12.4144 0.0000 0.0000 0.0000 -0.1085 -8.1177 -3.0578 0.0742 -1.7575 -4.8359 0.0000 0.0000 0.0000 13.7060 5.1734 -29.8087 -1.9512 -8.7637 25.0589 -0.1053 -3.1685 -8.1351 -0.0622 -1.6097 4.4281 -7.0789 -0.7304 10.7913 -0.9725 -1.8412 1.4345 3.2279 -0.8000 -4.3600 -12.9134 -7.0854 -20.8484 10.1127 -8.5556 23.6821 4.5244 -3.7464 12.3212 0.0000 0.0000 0.0000 -80.0233 -5.9465 25.4771 21.8558 -32.8137 -6.5075 -0.0000 -0.0000 2.4628 21.0677 24.3450 9.0232 -7.1250 0.0000 -0.0000 -9.0193 55.6201 -2.3646 0.0000 0.0000 0.0000 90.5380 -5.1043 11.4344 -15.3526 24.6351 -3.3716 0.0000 0.0000 7.4919 -15.7655 7.8228 -2.2006 7.1250 -0.0000 -0.0000 8.0363 -21.8836 4.5054
11.8022 17.8040 -19.1218 7.5212 3.9178 1.2258 0.0000 0.0000 0.0000 -30.8607 3.5418 12.6137 0.0000 -0.0000 -0.0000 -0.1043 -7.9577 -2.9966 0.0721 -1.7320 -4.7656 0.0000 0.0000 0.0000 13.6329 5.7683 -29.7362 -1.7570 -8.3404 23.7528 -0.1257 -3.4329 -8.8614 -0.0527 -1.4821 4.0763 -7.0424 -0.7757 10.5423 -0.9632 -1.8751 1.4325 3.2149 -0.8224 -4.2206 -12.8661 -7.1233 -21.1052 10.0561 -8.5847 23.7897 4.4882 -3.7546 12.4130 -0.0000 -0.0000 0.0000 -80.1265 -6.2400 25.2867 21.7342 -32.6754 -6.4418 -0.0000 -0.0000 2.7981 21.2439 24.6853 9.2219 -7.1250 0.0000 -0.0000 -8.9816 56.0044 -2.4386 -0.0000 -0.0000 0.0000 90.5696 -4.9022 11.1006 -15.1067 24.2946 -3.2697 0.0000 0.0000 7.8319 -15.7879 8.0874 -2.2779 7.1250 -0.0000 -0.0000 8.0124 -21.6109 4.5418
11.7916 17.7985 -18.9924 7.5832 4.0326 1.3162 0.0000 0.0000 0.0000 -30.8568 3.5376 12.9935 0.0000 0.0000 0.0000 -0.0998 -7.8151 -2.9654 0.1011 -2.0500 -5.6438 0.0000 0.0000 0.0000 13.5718 6.2607 -29.5037 -1.5961 -7.9686 22.6189 -0.1424 -3.9324 -9.6758 -0.0113 -0.6866 1.8869 -7.1132 -0.8451 10.4606 -0.9639 -1.9684 1.4247 3.2638 -0.8689 -4.1712 -12.7785 -7.1063 -21.3319 9.9385 -8.5368 23.9222 4.4367 -3.7336 12.4925 -0.0000 0.0000 0.0000 -80.1986 -6.3183 25.2241 21.7853 -32.7335 -6.4694 -0.0000 -0.0000 2.8534 21.4364 24.5139 9.2526 -7.1250 0.0000 -0.0000 -8.7052 55.8687 -2.3340 -0.0000 0.0000 0.0000 90.6098 -4.8630 10.9891 -15.0065 24.1552 -3.2286 0.0000 0.0000 7.9393 -15.7780 7.8598 -2.2128 7.1250 -0.0000 -0.0000 8.0262 -21.8451 4.5067
11.7806 17.7917 -18.8613 7.5528 4.0756 1.3704 0.0000 0.0000 0.0000 -30.7549 3.6277 13.4063 0.0000 0.0000 0.0000 -0.0963 -7.6822 -2.9209 0.0854 -1.8854 -5.1891 0.0000 0.0000 0.0000 13.6747 6.5941 -29.3420 -1.4778 -7.6812 21.7499 -0.1619 -4.2528 -10.3680 -0.0000 0.0081 -0.0221 -7.0604 -0.8655 10.3725 -0.9658 -1.9849 1.3680 3.2329 -0.8763 -4.1819 -12.7891 -7.0855 -21.3110 9.9362 -8.5144 24.0287 4.4453 -3.7260 12.5279 0.0000 -0.0000 0.0000 -80.1372 -6.1705 25.4766 21.8721 -32.8322 -6.5164 -0.0000 -0.0000 2.8623 21.4029 24.5070 9.2346 -7.1250 0.0000 -0.0000 -8.7375 55.8548 -2.3398 0.0000 -0.0000 0.0000 90.7379 -4.9920 10.7733 -14.9395 24.0617 -3.2012 0.0000 0.0000 8.0819 -15.6812 7.6782 -2.1481 7.1250 -0.0000 -0.0000 8.1020 -22.0358 4.5146
11.7710 17.7841 -18.7315 7.5971 4.0452 1.4160 0.0000 0.0000 0.0000 -30.7494 3.7870 13.7832 0.0000 0.0000 0.0000 -0.0914 -7.5977 -2.9733 0.1067 -2.1063 -5.7996 0.0000 0.0000 0.0000 13.7617 6.6913 -29.2626 -1.3962 -7.4751 21.1307 -0.1977 -4.3217 -11.1171 -0.0057 0.4894 -1.3447 -7.0904 -0.8268 10.2631 -0.9864 -1.9302 1.3355 3.2183 -0.8490 -4.1607 -12.7887 -7.1404 -21.2248 9.9638 -8.6151 24.0437 4.4386 -3.7697 12.5323 -0.0000 -0.0000 0.0000 -80.0848 -6.1614 25.6521 21.7907 -32.7396 -6.4723 -0.0000 -0.0000 3.0608 21.0063 24.5603 9.0683 -7.1250 0.0000 -0.0000 -9.1764 55.8276 -2.4527 -0.0000 -0.0000 0.0000 90.8149 -5.0216 10.3935 -14.7592 23.8096 -3.1281 0.0000 0.0000 8.3502 -15.6442 7.9730 -2.2244 7.1250 -0.0000 -0.0000 8.1197 -21.7348 4.5808
11.7630 17.7802 -18.5989 7.6892 4.0724 1.4404 0.0000 0.0000 0.0000 -30.7673 3.8956 14.1940 0.0000 0.0000 0.0000 -0.0978 -7.6352 -2.8167 0.1203 -2.2357 -6.1575 0.0000 0.0000 0.0000 13.8259 6.6404 -29.1712 -1.3513 -7.3588 20.7829 -0.2220 -4.5376 -11.7418 -0.0309 1.1346 -3.1194 -7.1504 -0.8376 10.2034 -1.0172 -1.9471 1.3394 3.2201 -0.8581 -4.1207 -12.7424 -7.1674 -21.2703 9.9624 -8.6636 24.0361 4.4203 -3.7856 12.5425 0.0000 0.0000 0.0000 -80.1179 -6.1714 25.6196 21.7070 -32.6443 -6.4271 -0.0000 -0.0000 3.3350 20.8927 24.4891 8.9913 -7.1250 0.0000 -0.0000 -9.2644 55.7316 -2.4548 0.0000 0.0000 0.0000 90.8849 -5.0355 10.0836 -14.6281 23.6255 -3.0754 0.0000 0.0000 8.6960 -15.6201 8.1097 -2.2586 7.1250 -0.0000 -0.0000 8.1331 -21.5956 4.6145
11.7530 17.7787 -18.4662 7.6597 4.0957 1.5175 0.0000 0.0000 0.0000 -30.6206 3.9662 14.5530 0.0000 -0.0000 -0.0000 -0.1091 -7.6844 -2.5101 0.0770 -1.7903 -4.9265 0.0000 0.0000 0.0000 14.0241 6.6737 -29.1602 -1.3496 -7.3545 20.7699 -0.2204 -4.9004 -12.0312 -0.0385 1.2667 -3.4830 -7.1198 -0.8633 10.0954 -0.9766 -1.9697 1.2799 3.2461 -0.8682 -4.1203 -12.9221 -7.1899 -21.1214 10.0901 -8.6891 24.0103 4.4974 -3.8022 12.5231 0.0000 -0.0000 0.0000 -80.2150 -6.0499 25.6991 21.6740 -32.6067 -6.4093 -0.0000 -0.0000 3.3942 21.0101 24.2727 8.9719 -7.1250 0.0000 -0.0000 -9.0486 55.5344 -2.3535 0.0000 -0.0000 0.0000 90.9003 -5.2118 9.8834 -14.5886 23.5699 -3.0595 0.0000 0.0000 8.9447 -15.4275 8.1903 -2.2514 7.1250 -0.0000 -0.0000 8.2698 -21.5217 4.7076
11.7428 17.7721 -18.3381 7.7305 3.9750 1.5806 0.0000 0.0000 0.0000 -30.5826 4.1765 14.8775 0.0000 -0.0000 -0.0000 -0.1171 -7.8207 -2.4209 0.0908 -1.9434 -5.3493 0.0000 0.0000 0.0000 14.2489 6.4596 -29.3490 -1.3832 -7.4419 21.0313 -0.2005 -4.9407 -11.7205 -0.0166 0.8311 -2.2841 -7.2086 -0.8571 10.1058 -0.9487 -1.9773 1.1619 3.3282 -0.8631 -4.2454 -13.1400 -7.1765 -20.9594 10.2156 -8.6566 24.0448 4.5931 -3.7977 12.5188 0.0000 0.0000 0.0000 -80.3221 -5.9696 25.7622 21.4866 -32.3920 -6.3086 -0.0000 -0.0000 3.3390 21.3113 24.1441 9.0661 -7.1250 0.0000 -0.0000 -8.6799 55.4640 -2.2417 0.0000 0.0000 0.0000 90.8458 -5.4346 9.8975 -14.5509 23.5167 -3.0445 0.0000 0.0000 9.0068 -15.5821 8.0130 -2.2262 7.1250 -0.0000 -0.0000 8.1634 -21.6966 4.6131
11.7358 17.7664 -18.2064 7.8547 3.7908 1.5546 0.0000 0.0000 0.0000 -30.6200 4.5077 15.2847 0.0000 0.0000 0.0000 -0.1203 -7.9488 -2.4829 0.2089 -2.9425 -8.1187 0.0000 0.0000 0.0000 14.5760 5.8327 -29.5537 -1.4321 -7.5666 21.4053 -0.1724 -4.4978 -10.7950 -0.0021 0.2971 -0.8162 -7.3079 -0.8357 10.1684 -0.9700 -1.9701 1.0955 3.3635 -0.8526 -4.3487 -13.1150 -7.1202 -20.9453 10.1760 -8.5744 24.0451 4.5890 -3.7645 12.5007 -0.0000 0.0000 0.0000 -80.4420 -5.9110 25.6271 21.2320 -32.0982 -6.1728 -0.0000 -0.0000 3.5077 21.6356 24.1413 9.2145 -7.1250 0.0000 -0.0000 -8.3394 55.5270 -2.1656 -0.0000 0.0000 0.0000 90.8643 -5.5177 9.9096 -14.4406 23.3611 -3.0006 0.0000 0.0000 9.0248 -16.0181 7.4524 -2.1325 7.1250 -0.0000 -0.0000 7.8642 -22.2536 4.3402
11.7290 17.7642 -18.0745 7.9803 3.6232 1.5362 0.0000 0.0000 0.0000 -30.6620 4.8067 15.6571 0.0000 -0.0000 -0.0000 -0.1275 -8.0933 -2.4364 0.4346 -4.2304 -11.7259 0.0000 0.0000 0.0000 14.8385 5.3353 -29.6653 -1.4935 -7.7202 21.8673 -0.1427 -4.1486 -9.8776 -0.0065 -0.5216 1.4333 -7.3505 -0.7807 10.2455 -1.0403 -1.9157 1.0357 3.3097 -0.8198 -4.4620 -12.9031 -7.0652 -20.9377 9.9989 -8.5149 24.0223 4.4940 -3.7406 12.4606 0.0000 -0.0000 0.0000 -80.4549 -5.5058 25.7204 21.3169 -32.1963 -6.2179 -0.0000 -0.0000 3.5913 21.5344 24.3220 9.2312 -7.1250 0.0000 -0.0000 -8.5209 55.6921 -2.2475 0.0000 -0.0000 0.0000 91.0004 -5.5061 9.4487 -14.2763 23.1284 -2.9358 0.0000 0.0000 9.4120 -15.7299 7.5276 -2.1131 7.1250 -0.0000 -0.0000 8.0714 -22.1884 4.4689
11.7194 17.7635 -17.9396 7.9322 3.4855 1.4675 0.0000 0.0000 0.0000 -30.4687 5.0952 16.1021 0.0000 -0.0000 -0.0000 -0.1405 -8.2583 -2.2344 0.6060 -4.9827 -13.8593 0.0000 0.0000 0.0000 15.2028 5.1668 -29.5183 -1.5587 -7.8792 22.3477 -0.1066 -4.3602 -9.2838 -0.0234 -0.9872 2.7136 -7.2216 -0.7022 10.3033 -1.0694 -1.8028 1.0529 3.1934 -0.7660 -4.4933 -12.9149 -7.1261 -21.1723 10.0748 -8.6084 24.2320 4.5114 -3.7673 12.6087 -0.0000 -0.0000 0.0000 -80.3466 -5.0788 26.1079 21.5601 -32.4763 -6.3480 -0.0000 -0.0000 3.2846 21.3734 24.5706 9.2429 -7.1250 0.0000 -0.0000 -8.7957 55.9137 -2.3682 -0.0000 -0.0000 0.0000 91.1630 -5.3770 8.7707 -14.0950 22.8704 -2.8649 0.0000 0.0000 9.8888 -15.4177 7.6063 -2.0906 7.1250 -0.0000 -0.0000 8.2957 -22.1207 4.6085
